<svg xmlns="http://www.w3.org/2000/svg" viewBox="0 0 33.13 37.18"><defs><style>.cls-1{fill:#0d0d0d;}.cls-2{fill:#bbd56a;}.cls-3{fill:#0b0b0b;}.cls-4{fill:#bbd56b;}.cls-5{font-size:12px;fill:#4bb3e6;font-family:CooperBlack, Cooper Black;}.cls-6{letter-spacing:0.01em;}</style></defs><g id="Livello_2" data-name="Livello 2"><g id="Livello_1-2" data-name="Livello 1"><path class="cls-1" d="M17,34.41H15.48s-.06-.06-.1-.06c-.74-.12-1.48-.19-2.22-.34a15.62,15.62,0,0,1-3.74-1.23,14.24,14.24,0,0,1-3.64-2.51c-.41-.39-.86-.75-1.23-1.18a21.68,21.68,0,0,1-1.58-2,16.3,16.3,0,0,1-2-4,18.12,18.12,0,0,1-1-6A28.83,28.83,0,0,1,.31,14a16.2,16.2,0,0,1,1.15-3.92A12.75,12.75,0,0,1,3.25,6.94a15.78,15.78,0,0,1,2-2.36c.14-.13.32-.23.46-.35.52-.45,1-.94,1.55-1.34a12,12,0,0,1,2-1.21A18.79,18.79,0,0,1,12.42.49,17.78,17.78,0,0,1,15.91,0a12.55,12.55,0,0,1,4.66.64A17.6,17.6,0,0,1,24.2,2.19a15.27,15.27,0,0,1,2.67,2.05c.46.45,1,.87,1.38,1.36a18,18,0,0,1,1.52,2,15.54,15.54,0,0,1,1.53,3.05,19,19,0,0,1,1.11,4.7c0,.27.08.53.12.8v1.95c0,.27-.1.54-.12.81a18.41,18.41,0,0,1-1.29,5.22,16.33,16.33,0,0,1-2.5,4.16,10.21,10.21,0,0,1-1.88,2c-.83.6-1.6,1.27-2.45,1.85a9.83,9.83,0,0,1-1.73.91,19.86,19.86,0,0,1-4.62,1.25C17.62,34.34,17.3,34.37,17,34.41ZM2.59,17.19c.05.55.08,1.1.13,1.65a14.19,14.19,0,0,0,.63,2.93,14,14,0,0,0,2.06,4.15c.43.57.93,1.09,1.41,1.63a11.77,11.77,0,0,0,2.44,2,10,10,0,0,0,1.67.83,9.58,9.58,0,0,0,1.49.62,23.23,23.23,0,0,0,2.35.46,10.48,10.48,0,0,0,3.26,0,10.92,10.92,0,0,0,3.62-1.09c.52-.27,1.07-.5,1.58-.79a10.16,10.16,0,0,0,.93-.69,9.71,9.71,0,0,0,.88-.67c.3-.28.55-.62.83-.92a10.34,10.34,0,0,0,.9-1,14.1,14.1,0,0,0,2.13-3.78,15.35,15.35,0,0,0,.82-3.13,17.06,17.06,0,0,0,.17-2.37,12.94,12.94,0,0,0-.68-4.27,17.44,17.44,0,0,0-1.06-2.65A15.51,15.51,0,0,0,25.83,7a17.62,17.62,0,0,0-1.94-1.74,10.53,10.53,0,0,0-2.4-1.36A27,27,0,0,0,18.36,3c-.36-.1-.76-.05-1.12-.13a7.2,7.2,0,0,0-2.62.06,11.73,11.73,0,0,0-2,.47c-.89.29-1.75.66-2.61,1A10.26,10.26,0,0,0,7.63,6.05,15.58,15.58,0,0,0,6.17,7.52a10.14,10.14,0,0,0-.83,1.12,9.85,9.85,0,0,0-1,1.5,22.07,22.07,0,0,0-1.14,2.92A14.73,14.73,0,0,0,2.59,17.19Z"/><path class="cls-2" d="M2.59,17.19a14.73,14.73,0,0,1,.6-4.13,22.07,22.07,0,0,1,1.14-2.92,9.85,9.85,0,0,1,1-1.5,10.14,10.14,0,0,1,.83-1.12A15.58,15.58,0,0,1,7.63,6.05,10.26,10.26,0,0,1,10,4.4c.86-.37,1.72-.74,2.61-1a11.73,11.73,0,0,1,2-.47,7.2,7.2,0,0,1,2.62-.06c.36.08.76,0,1.12.13a27,27,0,0,1,3.13.95,10.53,10.53,0,0,1,2.4,1.36A17.62,17.62,0,0,1,25.83,7a15.51,15.51,0,0,1,2.32,3.12,17.44,17.44,0,0,1,1.06,2.65,12.94,12.94,0,0,1,.68,4.27,17.06,17.06,0,0,1-.17,2.37,15.35,15.35,0,0,1-.82,3.13,14.1,14.1,0,0,1-2.13,3.78,10.34,10.34,0,0,1-.9,1c-.28.3-.53.64-.83.92a9.71,9.71,0,0,1-.88.67,10.16,10.16,0,0,1-.93.69c-.51.29-1.06.52-1.58.79A10.92,10.92,0,0,1,18,31.47a10.48,10.48,0,0,1-3.26,0A23.23,23.23,0,0,1,12.42,31a9.58,9.58,0,0,1-1.49-.62,10,10,0,0,1-1.67-.83,11.77,11.77,0,0,1-2.44-2c-.48-.54-1-1.06-1.41-1.63a14,14,0,0,1-2.06-4.15,14.19,14.19,0,0,1-.63-2.93C2.67,18.29,2.64,17.74,2.59,17.19Zm23.62,0h.09c-.11-.83-.22-1.65-.35-2.48a9.27,9.27,0,0,0-1.39-3.43,9.32,9.32,0,0,0-2.1-2.37,7.48,7.48,0,0,0-3.24-1.78,15.8,15.8,0,0,0-2.14-.4,8.28,8.28,0,0,0-2.58.11,18.41,18.41,0,0,0-2,.53c-.55.22-1,.6-1.57.87A8.72,8.72,0,0,0,8.83,10.1a8.6,8.6,0,0,0-1.06,1.52,7.77,7.77,0,0,0-1,2.35,12.57,12.57,0,0,0-.47,3.33A24.51,24.51,0,0,0,6.63,20a7,7,0,0,0,.86,2.39,9.79,9.79,0,0,0,1.59,2.2A9.7,9.7,0,0,0,11,26.18a7.21,7.21,0,0,0,2,1c.68.16,1.36.36,2.05.48a7.59,7.59,0,0,0,2.85-.08,6.09,6.09,0,0,0,2.61-.88.78.78,0,0,1,.21-.09,6.87,6.87,0,0,0,2.19-1.57,8,8,0,0,0,1.53-1.8,16.19,16.19,0,0,0,1.11-2.15A10.38,10.38,0,0,0,26.21,17.18Z"/><path class="cls-3" d="M26.21,17.18a10.38,10.38,0,0,1-.65,3.95,16.19,16.19,0,0,1-1.11,2.15,8,8,0,0,1-1.53,1.8,6.87,6.87,0,0,1-2.19,1.57.78.78,0,0,0-.21.09,6.09,6.09,0,0,1-2.61.88,7.59,7.59,0,0,1-2.85.08c-.69-.12-1.37-.32-2.05-.48a7.21,7.21,0,0,1-2-1,9.7,9.7,0,0,1-1.88-1.62,9.79,9.79,0,0,1-1.59-2.2A7,7,0,0,1,6.63,20a24.51,24.51,0,0,1-.38-2.67A12.57,12.57,0,0,1,6.72,14a7.77,7.77,0,0,1,1-2.35A8.6,8.6,0,0,1,8.83,10.1,8.72,8.72,0,0,1,11,8.22c.53-.27,1-.65,1.57-.87a18.41,18.41,0,0,1,2-.53,8.28,8.28,0,0,1,2.58-.11,15.8,15.8,0,0,1,2.14.4,7.48,7.48,0,0,1,3.24,1.78,9.32,9.32,0,0,1,2.1,2.37A9.27,9.27,0,0,1,26,14.69c.13.83.24,1.65.35,2.48Zm-17.33,0c0,.37,0,.74.09,1.09a7.88,7.88,0,0,0,1.29,3.46A8.52,8.52,0,0,0,12.56,24a5.64,5.64,0,0,0,1.34.55,9,9,0,0,0,1.67.45,7.58,7.58,0,0,0,3.86-.71,5.59,5.59,0,0,0,1.43-1,8.44,8.44,0,0,0,1.93-2.4,8.38,8.38,0,0,0,.37-1,8.09,8.09,0,0,0,.45-2.39,8.4,8.4,0,0,0-.34-2.64,5.34,5.34,0,0,0-.5-1.35A9.53,9.53,0,0,0,21,11.28a5.73,5.73,0,0,0-3-1.59,11.13,11.13,0,0,0-1.8-.25,8.68,8.68,0,0,0-1.88.26,4.86,4.86,0,0,0-1.39.47A7.56,7.56,0,0,0,10.83,12a6.73,6.73,0,0,0-1.24,1.92A8.77,8.77,0,0,0,8.88,17.19Z"/><path class="cls-4" d="M8.88,17.19a8.77,8.77,0,0,1,.71-3.3A6.73,6.73,0,0,1,10.83,12,7.56,7.56,0,0,1,13,10.17a4.86,4.86,0,0,1,1.39-.47,8.68,8.68,0,0,1,1.88-.26,11.13,11.13,0,0,1,1.8.25,5.73,5.73,0,0,1,3,1.59,9.53,9.53,0,0,1,1.75,2.2,5.34,5.34,0,0,1,.5,1.35,8.4,8.4,0,0,1,.34,2.64,8.09,8.09,0,0,1-.45,2.39,8.38,8.38,0,0,1-.37,1,8.44,8.44,0,0,1-1.93,2.4,5.59,5.59,0,0,1-1.43,1,7.58,7.58,0,0,1-3.86.71,9,9,0,0,1-1.67-.45A5.64,5.64,0,0,1,12.56,24a8.52,8.52,0,0,1-2.3-2.22A7.88,7.88,0,0,1,9,18.28C8.91,17.93,8.91,17.56,8.88,17.19Zm7.49,4.22v-.08a3.05,3.05,0,0,0,2-.72,2.3,2.3,0,0,0,.59-.48,5.23,5.23,0,0,0,1-1.86,4,4,0,0,0-.63-3.5,4.66,4.66,0,0,0-1.09-1.08,3.44,3.44,0,0,0-3.13-.47,4.26,4.26,0,0,0-2.8,3.94A4.64,4.64,0,0,0,13,19.35a4.07,4.07,0,0,0,1.93,1.72A6,6,0,0,0,16.37,21.41Z"/><path class="cls-3" d="M16.37,21.41a6,6,0,0,1-1.49-.34A4.07,4.07,0,0,1,13,19.35a4.64,4.64,0,0,1-.59-2.19,4.26,4.26,0,0,1,2.8-3.94,3.44,3.44,0,0,1,3.13.47,4.66,4.66,0,0,1,1.09,1.08,4,4,0,0,1,.63,3.5,5.23,5.23,0,0,1-1,1.86,2.3,2.3,0,0,1-.59.48,3.05,3.05,0,0,1-2,.72Z"/><text class="cls-5" transform="translate(14.76 34.17)"><tspan class="cls-6">C</tspan><tspan x="8.75" y="0">H</tspan></text></g></g></svg>