<svg xmlns="http://www.w3.org/2000/svg" viewBox="0 0 11.4 11.54"><defs><style>.cls-1{fill:#0d0d0d;}.cls-2{fill:#bbd56a;}.cls-3{fill:#0c0c0c;}.cls-4{fill:#0c0c0b;}</style></defs><g id="Livello_2" data-name="Livello 2"><g id="Livello_1-2" data-name="Livello 1"><path class="cls-1" d="M11.4,5.46V6.1l0,0c0,.2,0,.4-.07.59a6,6,0,0,1-.67,1.93,6.17,6.17,0,0,1-1,1.3l-.21.17c-.17.14-.34.3-.53.43a4.67,4.67,0,0,1-1.32.66,5.79,5.79,0,0,1-1.84.32,6.38,6.38,0,0,1-1-.09A5.26,5.26,0,0,1,3.34,11,4.27,4.27,0,0,1,2,10.12c-.2-.2-.41-.39-.6-.61a4.6,4.6,0,0,1-.71-1A6.28,6.28,0,0,1,.15,7,5.92,5.92,0,0,1,0,5.25,6.84,6.84,0,0,1,.5,3.41a5.89,5.89,0,0,1,1-1.58A3.72,3.72,0,0,1,2,1.37,9.43,9.43,0,0,1,2.92.73,5.72,5.72,0,0,1,3.58.41,5.36,5.36,0,0,1,5.63,0,7.6,7.6,0,0,1,6.8.11,5.67,5.67,0,0,1,8.14.54a2.88,2.88,0,0,1,.5.3c.34.24.68.49,1,.76a4.59,4.59,0,0,1,.77.93A4.53,4.53,0,0,1,11,3.62a6.35,6.35,0,0,1,.38,1.53C11.37,5.26,11.39,5.36,11.4,5.46ZM5.69,10.64l.7-.07a4.36,4.36,0,0,0,1.74-.64,4.65,4.65,0,0,0,1.06-.86c.14-.15.25-.33.38-.49a4.1,4.1,0,0,0,.57-1,5.61,5.61,0,0,0,.29-1.14,4.76,4.76,0,0,0,0-1.25,3.93,3.93,0,0,0-.29-1.12,3.71,3.71,0,0,0-.22-.55,5.18,5.18,0,0,0-.8-1.06C9,2.31,8.85,2.15,8.7,2a4.27,4.27,0,0,0-1.16-.7A5.15,5.15,0,0,0,5.91,1,3.12,3.12,0,0,0,5.3,1a5.32,5.32,0,0,0-.8.12,4.41,4.41,0,0,0-1.34.57l-.64.49a4.35,4.35,0,0,0-.36.38c-.1.12-.2.24-.29.37a4.63,4.63,0,0,0-.39.59A5.15,5.15,0,0,0,1.25,4,3.81,3.81,0,0,0,.94,5.32a4.86,4.86,0,0,0,.24,2,5.13,5.13,0,0,0,.67,1.32,4.3,4.3,0,0,0,.8.85,3.63,3.63,0,0,0,1,.64c.23.09.45.22.68.29A4.83,4.83,0,0,0,5.69,10.64Z"/><path class="cls-2" d="M5.69,10.64a4.83,4.83,0,0,1-1.36-.22c-.23-.07-.45-.2-.68-.29a3.63,3.63,0,0,1-1-.64,4.3,4.3,0,0,1-.8-.85,5.13,5.13,0,0,1-.67-1.32,4.86,4.86,0,0,1-.24-2A3.81,3.81,0,0,1,1.25,4a5.15,5.15,0,0,1,.23-.54,4.63,4.63,0,0,1,.39-.59c.09-.13.19-.25.29-.37a4.35,4.35,0,0,1,.36-.38l.64-.49A4.41,4.41,0,0,1,4.5,1.1,5.32,5.32,0,0,1,5.3,1a3.12,3.12,0,0,1,.61,0,5.15,5.15,0,0,1,1.63.37A4.27,4.27,0,0,1,8.7,2c.15.13.28.29.43.42a5.18,5.18,0,0,1,.8,1.06,3.71,3.71,0,0,1,.22.55,3.93,3.93,0,0,1,.29,1.12,4.76,4.76,0,0,1,0,1.25,5.61,5.61,0,0,1-.29,1.14,4.1,4.1,0,0,1-.57,1c-.13.16-.24.34-.38.49a4.65,4.65,0,0,1-1.06.86,4.36,4.36,0,0,1-1.74.64Zm0-8.44v0a2.55,2.55,0,0,0-1,.14,4,4,0,0,0-.82.36A3.09,3.09,0,0,0,3,3.48a3.18,3.18,0,0,0-.64,1.17,4.13,4.13,0,0,0-.18,1.16,2.87,2.87,0,0,0,.07.58,8,8,0,0,0,.23.84,1.45,1.45,0,0,0,.18.35,4.25,4.25,0,0,0,.43.59,3.45,3.45,0,0,0,.77.66,4.37,4.37,0,0,0,.57.29,6.24,6.24,0,0,0,.75.16,2.55,2.55,0,0,0,1.1,0,2.89,2.89,0,0,0,1-.33,3.35,3.35,0,0,0,.45-.27c.18-.14.32-.31.49-.45a1.92,1.92,0,0,0,.37-.44,3.2,3.2,0,0,0,.46-1,4,4,0,0,0,.12-1.5,3.87,3.87,0,0,0-.36-1.2,3.54,3.54,0,0,0-.79-1,3.24,3.24,0,0,0-1.51-.79C6.23,2.26,6,2.24,5.67,2.2Z"/><path class="cls-3" d="M5.67,2.2c.28,0,.56.06.84.12A3.24,3.24,0,0,1,8,3.11a3.54,3.54,0,0,1,.79,1,3.87,3.87,0,0,1,.36,1.2,4,4,0,0,1-.12,1.5,3.2,3.2,0,0,1-.46,1,1.92,1.92,0,0,1-.37.44c-.17.14-.31.31-.49.45A3.35,3.35,0,0,1,7.28,9a2.89,2.89,0,0,1-1,.33,2.55,2.55,0,0,1-1.1,0,6.24,6.24,0,0,1-.75-.16,4.37,4.37,0,0,1-.57-.29,3.45,3.45,0,0,1-.77-.66,4.25,4.25,0,0,1-.43-.59,1.45,1.45,0,0,1-.18-.35,8,8,0,0,1-.23-.84,2.87,2.87,0,0,1-.07-.58,4.13,4.13,0,0,1,.18-1.16A3.18,3.18,0,0,1,3,3.48a3.09,3.09,0,0,1,.89-.75,4,4,0,0,1,.82-.36,2.55,2.55,0,0,1,1-.14ZM3.11,5.77a2.33,2.33,0,0,0,0,.37A2.58,2.58,0,0,0,3.6,7.31,2.58,2.58,0,0,0,6,8.35,2.37,2.37,0,0,0,7.21,7.9,2.81,2.81,0,0,0,8,7c0-.11.07-.22.12-.33a2.48,2.48,0,0,0,.17-.85c0-.12,0-.24,0-.36A2.19,2.19,0,0,0,8,4.55a2.88,2.88,0,0,0-.78-.89,2.92,2.92,0,0,0-.37-.24,1.29,1.29,0,0,0-.26-.08,2.44,2.44,0,0,0-.46-.14,5.15,5.15,0,0,0-.56,0,2.35,2.35,0,0,0-1,.23,1.47,1.47,0,0,0-.6.41c-.06.08-.13.15-.19.22a4.35,4.35,0,0,0-.33.42A2.82,2.82,0,0,0,3.11,5.77Z"/><path class="cls-2" d="M3.11,5.77a2.82,2.82,0,0,1,.35-1.31A4.35,4.35,0,0,1,3.79,4c.06-.07.13-.14.19-.22a1.47,1.47,0,0,1,.6-.41,2.35,2.35,0,0,1,1-.23,5.15,5.15,0,0,1,.56,0,2.44,2.44,0,0,1,.46.14,1.29,1.29,0,0,1,.26.08,2.92,2.92,0,0,1,.37.24A2.88,2.88,0,0,1,8,4.55a2.19,2.19,0,0,1,.27.91c0,.12,0,.24,0,.36a2.48,2.48,0,0,1-.17.85c0,.11-.07.22-.12.33a2.81,2.81,0,0,1-.78.9A2.37,2.37,0,0,1,6,8.35a2.58,2.58,0,0,1-2.44-1,2.58,2.58,0,0,1-.45-1.17A2.33,2.33,0,0,1,3.11,5.77Zm4,0a1.4,1.4,0,0,0-1.36-1.4A1.41,1.41,0,0,0,4.33,5.77,1.43,1.43,0,0,0,5.69,7.18,1.44,1.44,0,0,0,7.07,5.79Z"/><path class="cls-4" d="M7.07,5.79A1.44,1.44,0,0,1,5.69,7.18,1.43,1.43,0,0,1,4.33,5.77,1.41,1.41,0,0,1,5.71,4.39,1.4,1.4,0,0,1,7.07,5.79Z"/></g></g></svg>